<svg width="204" height="204" viewBox="0 0 204 204" fill="none" xmlns="http://www.w3.org/2000/svg">
<path d="M167.15 1.01642H35.8819C16.0871 1.01642 0 17.0997 0 36.8898V168.127C0 187.917 16.0871 204 35.8819 204H167.15C186.945 204 203.032 187.917 203.032 168.127V36.8898C203.032 17.0997 186.945 1.01642 167.15 1.01642ZM134.617 80.9543C133.002 79.1606 130.969 77.7855 128.577 76.8289C126.125 75.8722 123.434 75.3939 120.324 75.3939C114.164 75.3939 109.32 77.3072 105.672 81.0739C102.024 84.9004 100.23 90.5803 100.23 98.1735V162.327H93.9508H75.4716H59.863C60.3414 160.653 60.4012 158.62 59.6238 155.451C58.9659 152.761 55.617 149.831 55.4973 145.646C55.3777 141.102 59.2051 138.531 59.7434 135.362C59.863 134.705 59.9228 134.107 59.9826 133.509C60.461 131.835 60.4012 129.802 59.6238 126.633C58.9659 123.943 55.617 121.013 55.4973 116.828C55.3777 112.284 59.2051 109.713 59.7434 106.544C59.863 105.886 59.9228 105.288 59.9826 104.691C60.461 103.016 60.3414 101.043 59.6238 97.8746C58.9659 95.1841 55.617 92.2544 55.4973 88.0692C55.3777 83.5252 59.2051 80.9543 59.7434 77.7855C59.863 77.1278 59.9228 76.5299 59.9826 75.932C60.461 74.2579 60.4012 72.2251 59.6238 69.0563C58.9659 66.3658 55.617 63.4361 55.4973 59.2509C54.4807 52.0164 59.9826 47.1137 59.9826 47.1137C59.9826 47.1137 63.1522 44.1841 75.4118 44.483H84.7411H100.17V54.1688C100.17 54.1688 100.17 54.1688 100.17 54.109C107.466 46.5158 117.513 42.6893 130.491 42.6893C136.172 42.6893 141.135 43.5264 145.382 45.2603C149.687 46.9344 153.395 49.5651 156.625 53.1524L134.557 81.0141L134.617 80.9543Z" fill="#0A369D"/>
<path d="M58.5471 87.6507C59.3844 86.3951 59.803 85.4385 61.0588 84.2427C63.5706 81.8511 68.5342 79.8183 72.0028 79.2204C72.7803 79.1008 73.0793 78.7421 74.2155 79.5792C70.9862 79.9379 63.2716 85.6178 62.5539 88.1888C61.4775 92.1348 63.3314 99.9074 62.5539 104.332C66.5009 101.94 70.9264 100.206 75.292 98.2931V94.7058C71.5244 96.4396 67.8166 97.4561 64.4676 99.9074C64.4676 99.9074 65.4843 95.483 75.292 91.0586V76.1114C67.6372 77.4267 60.2216 79.3998 58.4873 87.7105L58.5471 87.6507Z" fill="#0A369D"/>
<path d="M58.5473 145.227C59.3846 143.972 59.8032 143.015 61.0591 141.819C63.5708 139.428 68.5345 137.395 72.0031 136.797C72.7805 136.678 73.0795 136.319 74.2158 137.156C70.9864 137.515 63.2718 143.195 62.5542 145.766C61.4777 149.712 63.6306 154.913 62.7934 159.338C65.0659 159.338 74.754 159.218 75.2324 159.218V152.402C71.4648 154.136 67.757 155.152 64.4081 157.604C64.4081 157.604 65.4247 153.179 75.2324 148.755V133.748C67.5776 135.063 60.162 137.036 58.4277 145.347L58.5473 145.227Z" fill="#0A369D"/>
<path d="M58.5471 116.409C59.3844 115.154 59.803 114.197 61.0588 113.001C63.5706 110.61 68.5342 108.577 72.0028 107.979C72.7803 107.859 73.0793 107.501 74.2155 108.338C70.9862 108.696 63.2716 114.376 62.5539 116.947C61.4775 120.893 63.3314 128.666 62.5539 133.09C66.5009 130.699 70.9264 128.965 75.292 127.052V123.763C71.5244 125.497 67.8166 126.513 64.4676 128.965C64.4676 128.965 65.4843 124.54 75.292 120.116V104.87C67.6372 106.185 60.2216 108.158 58.4873 116.469L58.5471 116.409Z" fill="#0A369D"/>
<path d="M72.4815 47.7116C65.9032 49.0868 60.0424 51.4783 58.5474 58.8324C59.3846 57.5768 59.8032 56.6202 61.0591 55.4244C63.5708 53.0328 68.5345 51 72.0031 50.4021C72.7805 50.2825 73.2589 50.1032 74.2158 50.7608C70.9864 51.1196 63.2718 56.7995 62.5542 59.3705C61.4777 63.3165 63.3316 71.0891 62.5542 75.5135C66.5012 73.1219 70.9266 71.388 75.2923 69.4748V66.1266C71.5247 67.8605 67.8169 68.8769 64.4679 71.3283C64.4679 71.3283 65.4845 66.9039 75.2923 62.4795V47.3529C74.2158 47.592 73.3786 47.7116 73.3786 47.7116L72.4217 47.8312L72.4815 47.7116Z" fill="#0A369D"/>
</svg>
