<svg width="869" height="204" viewBox="0 0 869 204" fill="none" xmlns="http://www.w3.org/2000/svg">
<g clip-path="url(#clip0_231_1477)">
<path d="M356.008 45.3201C351.463 43.5264 346.141 42.6295 340.1 42.6295C326.286 42.6295 315.521 46.6952 307.747 54.7667V45.2005H268.157V170.877H307.747V101.821C307.747 93.6893 309.661 87.6506 313.548 83.585C317.435 79.5193 322.638 77.4865 329.216 77.4865C332.505 77.4865 335.436 78.0246 338.007 79.041C340.579 80.0575 342.732 81.5522 344.466 83.4654L368.029 53.7503C364.56 49.9836 360.553 47.1735 356.008 45.3201Z" fill="currentColor"/>
<path d="M452.231 50.3423C442.723 45.0211 431.779 42.3306 419.399 42.3306C407.02 42.3306 395.179 45.2005 385.013 50.8804C374.846 56.5604 366.773 64.3927 360.852 74.2579C354.932 84.1829 351.941 95.4232 351.941 108.039C351.941 120.654 354.932 131.894 360.972 141.939C367.012 151.924 375.324 159.756 385.91 165.317C396.495 170.937 408.635 173.747 422.27 173.747C432.795 173.747 442.424 171.953 451.215 168.306C460.006 164.659 467.541 159.278 473.701 151.984L451.992 130.28C448.225 134.585 443.799 137.814 438.776 139.966C433.752 142.118 428.19 143.195 421.971 143.195C415.273 143.195 409.412 141.76 404.508 138.95C399.605 136.08 395.777 132.074 393.146 126.812C392.249 125.079 391.591 123.165 390.993 121.192L480.997 120.953C481.655 117.665 482.133 114.795 482.432 112.284C482.671 109.773 482.791 107.441 482.791 105.169C482.791 92.9121 480.1 82.0903 474.658 72.5838C469.215 63.0774 461.74 55.6635 452.291 50.3423H452.231ZM403.492 76.8886C408.037 74.0188 413.479 72.6436 419.639 72.6436C425.499 72.6436 430.463 73.8992 434.53 76.4103C438.596 78.9214 441.646 82.5088 443.739 87.2919C444.577 89.2649 445.234 91.5369 445.773 93.9285L390.993 94.1078C391.531 92.3142 392.129 90.5803 392.907 88.966C395.418 83.8241 398.947 79.7585 403.492 76.9484V76.8886Z" fill="currentColor"/>
<path d="M593.486 51.1196C584.277 45.4396 573.692 42.5698 561.791 42.5698C553.359 42.5698 545.584 44.1841 538.527 47.4725C534.999 49.0868 531.829 51.0598 528.959 53.272V0H489.369V170.877H528.421V161.55C531.411 164.061 534.76 166.333 538.527 168.186C545.584 171.714 553.359 173.508 561.791 173.508C573.692 173.508 584.277 170.638 593.486 164.958C602.696 159.278 609.932 151.505 615.195 141.7C620.458 131.894 623.089 120.654 623.089 108.098C623.089 95.5428 620.458 84.3025 615.195 74.4971C609.932 64.6917 602.696 56.9191 593.486 51.2392V51.1196ZM579.373 123.285C576.981 127.769 573.632 131.297 569.386 133.868C565.14 136.438 560.296 137.754 554.794 137.754C549.292 137.754 544.388 136.498 540.202 133.987C535.956 131.476 532.667 128.008 530.215 123.524C527.823 119.04 526.567 113.898 526.567 107.979C526.567 102.06 527.703 96.9179 530.035 92.4338C532.368 87.9496 535.657 84.4818 540.022 81.9707C544.328 79.4596 549.232 78.204 554.794 78.204C560.355 78.204 565.2 79.4596 569.386 81.9707C573.632 84.4818 576.921 87.9496 579.373 92.4338C581.765 96.9179 583.021 102.12 583.021 107.979C583.021 113.838 581.825 118.741 579.373 123.225V123.285Z" fill="currentColor"/>
<path d="M723.02 55.6635C719.611 52.4349 715.724 49.6846 711.239 47.5322C704.421 44.2438 696.767 42.6295 688.334 42.6295C676.792 42.6295 666.446 45.4994 657.416 51.1794C648.386 56.8593 641.209 64.6319 635.947 74.4373C630.684 84.2427 628.053 95.483 628.053 108.039C628.053 120.594 630.684 131.835 635.947 141.64C641.209 151.445 648.386 159.218 657.416 164.898C666.446 170.578 676.792 173.448 688.334 173.448C696.767 173.448 704.481 171.834 711.359 168.545C715.844 166.453 719.671 163.762 723.02 160.593V170.877H761.832V45.2005H723.02V55.6635ZM696.348 137.814C691.026 137.814 686.181 136.498 681.876 133.927C677.57 131.356 674.221 127.829 671.769 123.345C669.377 118.86 668.121 113.778 668.121 108.098C668.121 102.419 669.377 97.0375 671.888 92.5533C674.4 88.0692 677.749 84.6014 681.995 82.0903C686.241 79.5791 691.085 78.3236 696.587 78.3236C702.089 78.3236 706.993 79.5791 711.179 82.0903C715.425 84.6014 718.655 88.0692 720.987 92.5533C723.319 97.0375 724.455 102.239 724.455 108.098C724.455 116.708 721.884 123.823 716.681 129.443C711.538 135.063 704.72 137.873 696.228 137.873L696.348 137.814Z" fill="currentColor"/>
<path d="M856.979 45.3201C852.434 43.5264 847.112 42.6295 841.072 42.6295C827.257 42.6295 816.493 46.6952 808.718 54.7667V45.2005H769.128V170.877H808.718V101.821C808.718 93.6893 810.632 87.6506 814.519 83.585C818.406 79.5193 823.609 77.4865 830.188 77.4865C833.477 77.4865 836.407 78.0246 838.978 79.041C841.55 80.0575 843.703 81.5522 845.437 83.4654L869 53.7503C865.531 49.9836 861.524 47.1735 856.979 45.3201Z" fill="currentColor"/>
<path d="M167.15 1.01642H35.8819C16.0871 1.01642 0 17.0997 0 36.8898V168.127C0 187.917 16.0871 204 35.8819 204H167.15C186.945 204 203.032 187.917 203.032 168.127V36.8898C203.032 17.0997 186.945 1.01642 167.15 1.01642ZM134.617 80.9543C133.002 79.1606 130.969 77.7855 128.577 76.8289C126.125 75.8722 123.434 75.3939 120.324 75.3939C114.164 75.3939 109.32 77.3072 105.672 81.0739C102.024 84.9004 100.23 90.5803 100.23 98.1735V162.327H93.9508H75.4716H59.863C60.3414 160.653 60.4012 158.62 59.6238 155.451C58.9659 152.761 55.617 149.831 55.4973 145.646C55.3777 141.102 59.2051 138.531 59.7434 135.362C59.863 134.705 59.9228 134.107 59.9826 133.509C60.461 131.835 60.4012 129.802 59.6238 126.633C58.9659 123.943 55.617 121.013 55.4973 116.828C55.3777 112.284 59.2051 109.713 59.7434 106.544C59.863 105.886 59.9228 105.288 59.9826 104.691C60.461 103.016 60.3414 101.043 59.6238 97.8746C58.9659 95.1841 55.617 92.2544 55.4973 88.0692C55.3777 83.5252 59.2051 80.9543 59.7434 77.7855C59.863 77.1278 59.9228 76.5299 59.9826 75.932C60.461 74.2579 60.4012 72.2251 59.6238 69.0563C58.9659 66.3658 55.617 63.4361 55.4973 59.2509C54.4807 52.0164 59.9826 47.1137 59.9826 47.1137C59.9826 47.1137 63.1522 44.1841 75.4118 44.483H84.7411H100.17V54.1688C100.17 54.1688 100.17 54.1688 100.17 54.109C107.466 46.5158 117.513 42.6893 130.491 42.6893C136.172 42.6893 141.135 43.5264 145.382 45.2603C149.687 46.9344 153.395 49.5651 156.625 53.1524L134.557 81.0141L134.617 80.9543Z" fill="currentColor"/>
<path d="M58.5471 87.6507C59.3844 86.3951 59.803 85.4385 61.0588 84.2427C63.5706 81.8511 68.5342 79.8183 72.0028 79.2204C72.7803 79.1008 73.0793 78.7421 74.2155 79.5792C70.9862 79.9379 63.2716 85.6178 62.5539 88.1888C61.4775 92.1348 63.3314 99.9074 62.5539 104.332C66.5009 101.94 70.9264 100.206 75.292 98.2931V94.7058C71.5244 96.4396 67.8166 97.4561 64.4676 99.9074C64.4676 99.9074 65.4843 95.483 75.292 91.0586V76.1114C67.6372 77.4267 60.2216 79.3998 58.4873 87.7105L58.5471 87.6507Z" fill="currentColor"/>
<path d="M58.5473 145.227C59.3846 143.972 59.8032 143.015 61.0591 141.819C63.5708 139.428 68.5345 137.395 72.0031 136.797C72.7805 136.678 73.0795 136.319 74.2158 137.156C70.9864 137.515 63.2718 143.195 62.5542 145.766C61.4777 149.712 63.6306 154.913 62.7934 159.338C65.0659 159.338 74.754 159.218 75.2324 159.218V152.402C71.4648 154.136 67.757 155.152 64.4081 157.604C64.4081 157.604 65.4247 153.179 75.2324 148.755V133.748C67.5776 135.063 60.162 137.036 58.4277 145.347L58.5473 145.227Z" fill="currentColor"/>
<path d="M58.5471 116.409C59.3844 115.154 59.803 114.197 61.0588 113.001C63.5706 110.61 68.5342 108.577 72.0028 107.979C72.7803 107.859 73.0793 107.501 74.2155 108.338C70.9862 108.696 63.2716 114.376 62.5539 116.947C61.4775 120.893 63.3314 128.666 62.5539 133.09C66.5009 130.699 70.9264 128.965 75.292 127.052V123.763C71.5244 125.497 67.8166 126.513 64.4676 128.965C64.4676 128.965 65.4843 124.54 75.292 120.116V104.87C67.6372 106.185 60.2216 108.158 58.4873 116.469L58.5471 116.409Z" fill="currentColor"/>
<path d="M72.4815 47.7116C65.9032 49.0868 60.0424 51.4783 58.5474 58.8324C59.3846 57.5768 59.8032 56.6202 61.0591 55.4244C63.5708 53.0328 68.5345 51 72.0031 50.4021C72.7805 50.2825 73.2589 50.1032 74.2158 50.7608C70.9864 51.1196 63.2718 56.7995 62.5542 59.3705C61.4777 63.3165 63.3316 71.0891 62.5542 75.5135C66.5012 73.1219 70.9266 71.388 75.2923 69.4748V66.1266C71.5247 67.8605 67.8169 68.8769 64.4679 71.3283C64.4679 71.3283 65.4845 66.9039 75.2923 62.4795V47.3529C74.2158 47.592 73.3786 47.7116 73.3786 47.7116L72.4217 47.8312L72.4815 47.7116Z" fill="currentColor"/>
</g>
<defs>
<clipPath id="clip0_231_1477">
<rect width="869" height="204" fill="white"/>
</clipPath>
</defs>
</svg>
